<?xml version="1.0" encoding="UTF-8"?>
<!-- Generator: visioncortex VTracer 0.6.3 -->
<svg version="1.1" xmlns="http://www.w3.org/2000/svg" width="1280" height="1280">
<path d="M0 0 C1.57 -0 3.13 -0 4.7 -0.01 C9 -0.01 13.31 -0.01 17.61 -0.01 C22.29 -0.01 26.97 -0.02 31.65 -0.02 C40.94 -0.03 50.22 -0.04 59.51 -0.04 C70.63 -0.04 81.75 -0.05 92.87 -0.06 C119.75 -0.08 146.63 -0.09 173.51 -0.1 C186.22 -0.1 198.93 -0.11 211.65 -0.11 C254.48 -0.13 297.31 -0.15 340.15 -0.15 C343.56 -0.16 346.97 -0.16 350.38 -0.16 C351.4 -0.16 351.4 -0.16 352.44 -0.16 C359.3 -0.16 366.15 -0.16 373.01 -0.16 C374.39 -0.16 375.76 -0.16 377.14 -0.16 C421.31 -0.17 465.49 -0.19 509.66 -0.22 C557.05 -0.26 604.43 -0.28 651.82 -0.28 C656.94 -0.28 662.07 -0.28 667.19 -0.28 C668.46 -0.28 669.72 -0.28 671.02 -0.28 C691.33 -0.29 711.65 -0.3 731.97 -0.32 C752.38 -0.34 772.8 -0.35 793.21 -0.34 C805.34 -0.33 817.47 -0.34 829.6 -0.36 C837.7 -0.38 845.81 -0.37 853.91 -0.36 C858.52 -0.35 863.14 -0.35 867.76 -0.37 C871.96 -0.39 876.17 -0.38 880.37 -0.37 C881.88 -0.36 883.39 -0.37 884.89 -0.38 C897.58 -0.46 908.57 2.13 919.84 8.01 C920.86 8.53 920.86 8.53 921.89 9.05 C926.83 11.63 931.26 14.55 935.53 18.13 C936.26 18.64 936.99 19.15 937.73 19.68 C938.62 20.4 938.62 20.4 939.53 21.13 C939.53 21.79 939.53 22.45 939.53 23.13 C940.19 23.13 940.85 23.13 941.53 23.13 C951.26 33.24 956.19 44.7 959.53 58.13 C959.8 59.08 959.8 59.08 960.07 60.05 C960.57 62.29 960.66 64.29 960.66 66.58 C960.66 67.47 960.67 68.37 960.67 69.29 C960.67 70.26 960.66 71.24 960.66 72.25 C960.67 73.82 960.67 73.82 960.67 75.42 C960.67 78.95 960.67 82.48 960.67 86.01 C960.67 88.56 960.68 91.1 960.68 93.65 C960.69 99.93 960.69 106.21 960.69 112.49 C960.69 120.01 960.7 127.53 960.71 135.05 C960.72 153.23 960.73 171.41 960.73 189.59 C960.73 198.19 960.74 206.79 960.74 215.39 C960.75 244.82 960.77 274.25 960.77 303.68 C960.77 305.52 960.77 307.37 960.77 309.22 C960.77 311.07 960.77 312.92 960.77 314.78 C960.77 318.49 960.77 322.21 960.77 325.92 C960.77 326.85 960.77 327.77 960.77 328.72 C960.78 358.59 960.79 388.47 960.81 418.35 C960.84 449.93 960.85 481.51 960.85 513.09 C960.85 516.56 960.85 520.03 960.86 523.49 C960.86 524.35 960.86 525.2 960.86 526.08 C960.86 539.82 960.87 553.56 960.88 567.3 C960.9 581.11 960.9 594.92 960.89 608.73 C960.89 616.94 960.89 625.14 960.91 633.35 C960.92 639.47 960.91 645.6 960.9 651.72 C960.9 654.2 960.9 656.68 960.91 659.16 C960.92 662.53 960.92 665.9 960.9 669.26 C960.91 670.71 960.91 670.71 960.93 672.18 C960.76 693.16 948.02 712.84 933.53 727.13 C915.9 743.12 896.54 750.63 872.95 750.52 C871.39 750.52 869.84 750.53 868.28 750.53 C864.02 750.55 859.76 750.54 855.5 750.53 C850.86 750.53 846.22 750.54 841.58 750.55 C833.46 750.56 825.33 750.56 817.2 750.56 C805.11 750.55 793.03 750.56 780.94 750.58 C758.1 750.6 735.26 750.61 712.42 750.6 C694.78 750.6 677.14 750.61 659.5 750.61 C656.97 750.61 654.43 750.62 651.9 750.62 C650.01 750.62 650.01 750.62 648.09 750.62 C646.2 750.62 646.2 750.62 644.27 750.62 C642.38 750.62 642.38 750.62 640.44 750.62 C604.94 750.64 569.44 750.64 533.94 750.64 C533.27 750.64 532.6 750.64 531.91 750.64 C524.45 750.64 516.99 750.64 509.53 750.64 C507.49 750.64 505.45 750.64 503.41 750.64 C502.05 750.64 500.68 750.64 499.32 750.63 C456.24 750.63 413.17 750.64 370.09 750.68 C359.23 750.68 348.38 750.69 337.52 750.7 C336.86 750.7 336.19 750.7 335.5 750.7 C299.4 750.73 263.3 750.73 227.2 750.73 C222.12 750.73 217.04 750.73 211.96 750.73 C210.71 750.73 209.46 750.73 208.18 750.73 C189.3 750.72 170.42 750.74 151.54 750.75 C130.07 750.78 108.6 750.78 87.13 750.76 C75.12 750.75 63.1 750.75 51.09 750.78 C43.06 750.79 35.03 750.79 27 750.77 C22.43 750.76 17.86 750.76 13.29 750.78 C9.12 750.79 4.96 750.79 0.79 750.76 C-0.7 750.76 -2.19 750.76 -3.68 750.78 C-23.63 750.94 -39.69 743.3 -54.47 730.13 C-55.74 729.03 -55.74 729.03 -57.03 727.9 C-67.18 718.46 -74.45 705.98 -79.47 693.13 C-79.96 691.95 -80.46 690.76 -80.97 689.54 C-86.62 674.91 -86.34 660.1 -86.26 644.66 C-86.25 640.69 -86.28 636.72 -86.29 632.74 C-86.33 624.92 -86.33 617.1 -86.31 609.28 C-86.3 600 -86.33 590.71 -86.35 581.43 C-86.4 563.47 -86.41 545.51 -86.41 527.56 C-86.4 512.01 -86.41 496.45 -86.44 480.9 C-86.44 478.83 -86.44 476.75 -86.45 474.67 C-86.45 471.56 -86.45 468.44 -86.46 465.32 C-86.59 375.66 -86.53 285.99 -86.09 164.38 C-86.09 163.08 -86.08 161.78 -86.08 160.44 C-86.01 143.31 -85.93 126.19 -85.84 109.06 C-85.82 105.82 -85.8 102.58 -85.79 99.35 C-85.77 94.42 -85.74 89.49 -85.71 84.55 C-85.7 82.79 -85.69 81.02 -85.68 79.25 C-85.61 63.08 -85.61 63.08 -84.47 55.13 C-83.81 55.13 -83.15 55.13 -82.47 55.13 C-82.14 51.5 -81.81 47.87 -81.47 44.13 C-79.98 43.64 -79.98 43.64 -78.47 43.13 C-78.14 40.82 -77.81 38.51 -77.47 36.13 C-76.81 36.13 -76.15 36.13 -75.47 36.13 C-73.94 33.15 -72.53 30.32 -71.47 27.13 C-70.15 26.45 -68.81 25.78 -67.47 25.13 C-66.2 23.93 -64.97 22.67 -63.78 21.38 C-59.79 17.28 -55.5 13.89 -50.47 11.13 C-49.81 11.13 -49.15 11.13 -48.47 11.13 C-48.14 10.47 -47.81 9.81 -47.47 9.13 C-45.03 8.06 -45.03 8.06 -42.03 7.01 C-41.04 6.66 -40.05 6.3 -39.03 5.94 C-36.47 5.13 -36.47 5.13 -34.47 5.13 C-34.47 4.47 -34.47 3.81 -34.47 3.13 C-31.83 3.13 -29.19 3.13 -26.47 3.13 C-26.14 2.47 -25.81 1.81 -25.47 1.13 C-17.31 -0.78 -8.34 -0.01 0 0 Z M8.53 87.13 C7.51 87.95 6.5 88.76 5.45 89.6 C1.62 94.75 2.84 102.58 2.87 108.71 C2.86 110.34 2.85 111.97 2.84 113.61 C2.81 118.14 2.81 122.67 2.82 127.2 C2.83 132.19 2.8 137.18 2.78 142.16 C2.74 152.16 2.73 162.15 2.72 172.14 C2.72 180.4 2.71 188.66 2.69 196.92 C2.69 198.1 2.68 199.29 2.68 200.51 C2.68 202.94 2.67 205.37 2.66 207.79 C2.63 224.9 2.6 242.01 2.58 259.11 C2.58 259.81 2.58 260.51 2.58 261.24 C2.58 264.84 2.58 268.44 2.57 272.05 C2.55 300.65 2.5 329.25 2.43 357.85 C2.33 392.78 2.26 427.71 2.21 462.64 C2.21 466.53 2.2 470.41 2.19 474.3 C2.19 475.26 2.19 476.22 2.19 477.21 C2.17 491.79 2.14 506.37 2.1 520.95 C2.05 537.71 2.02 554.47 2.02 571.23 C2.02 580.75 2 590.28 1.96 599.8 C1.94 606.22 1.93 612.64 1.94 619.05 C1.95 622.73 1.95 626.41 1.92 630.09 C1.9 634.06 1.91 638.02 1.92 641.99 C1.91 643.15 1.9 644.3 1.88 645.49 C1.88 652.11 1.88 652.11 4.91 657.78 C7.42 660.03 9.78 661.8 12.72 663.45 C13.58 663.94 14.44 664.43 15.32 664.94 C18.96 666.91 20.98 667.26 25.16 667.26 C26.37 667.26 27.57 667.26 28.82 667.27 C30.17 667.26 31.53 667.26 32.88 667.26 C34.31 667.26 35.75 667.26 37.18 667.26 C41.15 667.26 45.12 667.26 49.09 667.26 C53.4 667.25 57.7 667.26 62.01 667.26 C69.57 667.26 77.13 667.26 84.69 667.25 C95.93 667.25 107.17 667.25 118.41 667.25 C137.31 667.25 156.22 667.25 175.12 667.24 C193.85 667.23 212.58 667.23 231.3 667.23 C233.05 667.23 233.05 667.23 234.83 667.23 C240.73 667.23 246.64 667.23 252.54 667.23 C294.41 667.23 336.28 667.22 378.14 667.21 C418.82 667.2 459.5 667.19 500.18 667.19 C502.06 667.19 502.06 667.19 503.98 667.19 C516.56 667.19 529.15 667.19 541.74 667.18 C567.37 667.18 593.01 667.18 618.65 667.18 C619.83 667.18 621.01 667.18 622.23 667.18 C700.99 667.17 779.76 667.15 858.53 667.13 C858.53 666.47 858.53 665.81 858.53 665.13 C859.43 664.98 859.43 664.98 860.34 664.82 C862.91 664.02 863.72 663.09 865.53 661.13 C866.4 660.45 867.26 659.77 868.16 659.07 C870.59 657.36 870.59 657.36 871.53 655.13 C871.6 652.6 871.62 650.1 871.59 647.57 C871.59 646.52 871.59 646.52 871.58 645.46 C871.57 643.68 871.55 641.91 871.53 640.13 C871.53 561.47 871.53 482.8 871.53 404.13 C870.87 404.13 870.21 404.13 869.53 404.13 C869.86 372.78 870.19 341.43 870.53 309.13 C870.86 309.13 871.19 309.13 871.53 309.13 C871.55 280.81 871.57 252.49 871.58 224.17 C871.59 211.02 871.6 197.88 871.61 184.73 C871.62 173.27 871.62 161.81 871.63 150.35 C871.63 144.28 871.63 138.21 871.64 132.14 C871.64 126.43 871.65 120.72 871.64 115.01 C871.64 112.91 871.65 110.81 871.65 108.72 C871.66 105.86 871.65 102.99 871.65 100.13 C871.65 99.3 871.66 98.47 871.66 97.61 C871.65 93.34 871.38 89.34 870.53 85.13 C869.89 85.03 869.25 84.93 868.59 84.82 C867.91 84.59 867.23 84.37 866.53 84.13 C866.2 83.14 865.87 82.15 865.53 81.13 C862.35 80.07 860.1 80.01 856.76 80 C854.94 80 854.94 80 853.08 79.99 C851.72 79.99 850.37 79.99 849.01 79.99 C847.57 79.99 846.13 79.99 844.69 79.98 C840.71 79.97 836.72 79.97 832.74 79.97 C828.41 79.97 824.09 79.96 819.77 79.95 C811.18 79.93 802.59 79.93 794 79.92 C786.86 79.91 779.72 79.9 772.57 79.89 C771.54 79.89 770.51 79.89 769.45 79.89 C767.35 79.89 765.25 79.88 763.15 79.88 C735.94 79.84 708.72 79.82 681.5 79.79 C677.98 79.79 674.45 79.79 670.93 79.78 C626.1 79.75 581.28 79.71 536.45 79.69 C525.06 79.69 513.66 79.68 502.26 79.67 C501 79.67 499.74 79.67 498.44 79.67 C457.6 79.65 416.75 79.61 375.91 79.55 C333.93 79.48 291.96 79.45 249.98 79.44 C244.06 79.43 238.13 79.43 232.21 79.43 C231.04 79.43 229.87 79.43 228.67 79.43 C209.88 79.42 191.1 79.39 172.31 79.36 C153.43 79.32 134.56 79.31 115.68 79.32 C104.46 79.33 93.24 79.32 82.02 79.28 C74.53 79.25 67.04 79.25 59.55 79.27 C55.27 79.28 51 79.28 46.73 79.25 C42.85 79.23 38.96 79.23 35.07 79.26 C33.68 79.27 32.28 79.26 30.89 79.24 C21.32 79.12 15.74 80.8 8.53 87.13 Z M870.53 312.13 C870.53 342.16 870.53 372.19 870.53 403.13 C870.86 403.13 871.19 403.13 871.53 403.13 C871.53 373.1 871.53 343.07 871.53 312.13 C871.2 312.13 870.87 312.13 870.53 312.13 Z " fill="#4B7077" transform="translate(200.4684419631958,376.86577892303467)"/>
<path d="M0 0 C1.57 -0 3.13 -0 4.7 -0.01 C9 -0.01 13.31 -0.01 17.61 -0.01 C22.29 -0.01 26.97 -0.02 31.65 -0.02 C40.94 -0.03 50.22 -0.04 59.51 -0.04 C70.63 -0.04 81.75 -0.05 92.87 -0.06 C119.75 -0.08 146.63 -0.09 173.51 -0.1 C186.22 -0.1 198.93 -0.11 211.65 -0.11 C254.48 -0.13 297.31 -0.15 340.15 -0.15 C343.56 -0.16 346.97 -0.16 350.38 -0.16 C351.4 -0.16 351.4 -0.16 352.44 -0.16 C359.3 -0.16 366.15 -0.16 373.01 -0.16 C374.39 -0.16 375.76 -0.16 377.14 -0.16 C421.31 -0.17 465.49 -0.19 509.66 -0.22 C557.05 -0.26 604.43 -0.28 651.82 -0.28 C656.94 -0.28 662.07 -0.28 667.19 -0.28 C668.46 -0.28 669.72 -0.28 671.02 -0.28 C691.33 -0.29 711.65 -0.3 731.97 -0.32 C752.38 -0.34 772.8 -0.35 793.21 -0.34 C805.34 -0.33 817.47 -0.34 829.6 -0.36 C837.7 -0.38 845.81 -0.37 853.91 -0.36 C858.52 -0.35 863.14 -0.35 867.76 -0.37 C871.96 -0.39 876.17 -0.38 880.37 -0.37 C881.88 -0.36 883.39 -0.37 884.89 -0.38 C897.58 -0.46 908.57 2.13 919.84 8.01 C920.86 8.53 920.86 8.53 921.89 9.05 C926.83 11.63 931.26 14.55 935.53 18.13 C936.26 18.64 936.99 19.15 937.73 19.68 C938.62 20.4 938.62 20.4 939.53 21.13 C939.53 21.79 939.53 22.45 939.53 23.13 C940.19 23.13 940.85 23.13 941.53 23.13 C951.26 33.24 956.19 44.7 959.53 58.13 C959.71 58.77 959.89 59.4 960.07 60.06 C960.56 62.26 960.66 64.2 960.65 66.45 C960.66 67.31 960.66 68.18 960.66 69.06 C960.66 70 960.65 70.95 960.65 71.92 C960.65 72.92 960.65 73.92 960.65 74.96 C960.66 78.33 960.65 81.71 960.65 85.08 C960.64 87.49 960.64 89.91 960.65 92.32 C960.65 97.52 960.64 102.73 960.64 107.93 C960.63 115.45 960.63 122.98 960.63 130.5 C960.62 142.7 960.62 154.91 960.61 167.11 C960.6 178.97 960.59 190.82 960.59 202.68 C960.59 203.41 960.59 204.14 960.59 204.89 C960.58 208.56 960.58 212.23 960.58 215.89 C960.57 246.31 960.55 276.72 960.53 307.13 C931.16 307.13 901.79 307.13 871.53 307.13 C871.2 233.87 870.87 160.61 870.53 85.13 C869.21 84.8 867.89 84.47 866.53 84.13 C866.2 83.47 865.87 82.81 865.53 82.13 C862.35 81.07 860.1 81.01 856.76 81 C854.94 81 854.94 81 853.08 80.99 C851.72 80.99 850.37 80.99 849.01 80.99 C847.57 80.99 846.13 80.99 844.69 80.98 C840.71 80.97 836.72 80.97 832.74 80.97 C828.41 80.97 824.09 80.96 819.77 80.95 C811.18 80.93 802.59 80.93 794 80.92 C786.86 80.91 779.72 80.9 772.57 80.89 C771.54 80.89 770.51 80.89 769.45 80.89 C767.35 80.89 765.25 80.88 763.15 80.88 C735.94 80.84 708.72 80.82 681.5 80.79 C677.98 80.79 674.45 80.79 670.93 80.78 C626.1 80.75 581.28 80.71 536.45 80.69 C525.06 80.69 513.66 80.68 502.26 80.67 C501 80.67 499.74 80.67 498.44 80.67 C457.6 80.65 416.75 80.61 375.91 80.55 C333.93 80.48 291.96 80.45 249.98 80.44 C244.06 80.43 238.13 80.43 232.21 80.43 C231.04 80.43 229.87 80.43 228.67 80.43 C209.88 80.42 191.1 80.39 172.31 80.36 C153.43 80.32 134.56 80.31 115.68 80.32 C104.46 80.33 93.24 80.32 82.02 80.28 C74.53 80.25 67.04 80.25 59.55 80.27 C55.27 80.28 51 80.28 46.73 80.25 C42.85 80.23 38.96 80.23 35.07 80.26 C33.68 80.27 32.28 80.26 30.89 80.24 C19.74 80.09 14 83.1 5.94 90.52 C3.88 94.34 3.97 97.7 4.01 101.97 C4.01 102.86 4 103.75 3.99 104.67 C3.97 107.66 3.98 110.64 3.99 113.62 C3.98 115.76 3.97 117.9 3.95 120.04 C3.93 125.85 3.92 131.65 3.92 137.46 C3.92 143.53 3.9 149.6 3.87 155.67 C3.83 167.16 3.81 178.65 3.8 190.14 C3.78 203.23 3.74 216.31 3.7 229.39 C3.62 256.31 3.57 283.22 3.53 310.13 C-25.84 309.8 -55.21 309.47 -85.47 309.13 C-85.49 278.08 -85.51 247.02 -85.52 215.96 C-85.52 212.29 -85.52 208.62 -85.52 204.95 C-85.52 204.22 -85.52 203.49 -85.52 202.74 C-85.53 190.92 -85.54 179.1 -85.55 167.29 C-85.55 155.16 -85.56 143.02 -85.56 130.89 C-85.56 123.41 -85.57 115.93 -85.58 108.45 C-85.58 102.7 -85.58 96.96 -85.58 91.22 C-85.58 88.87 -85.58 86.52 -85.59 84.16 C-85.59 80.95 -85.59 77.73 -85.59 74.52 C-85.59 73.59 -85.59 72.66 -85.6 71.71 C-85.58 66.11 -85.18 60.69 -84.47 55.13 C-83.81 55.13 -83.15 55.13 -82.47 55.13 C-82.14 51.5 -81.81 47.87 -81.47 44.13 C-79.98 43.64 -79.98 43.64 -78.47 43.13 C-78.14 40.82 -77.81 38.51 -77.47 36.13 C-76.81 36.13 -76.15 36.13 -75.47 36.13 C-73.94 33.15 -72.53 30.32 -71.47 27.13 C-70.15 26.45 -68.81 25.78 -67.47 25.13 C-66.2 23.93 -64.97 22.67 -63.78 21.38 C-59.79 17.28 -55.5 13.89 -50.47 11.13 C-49.81 11.13 -49.15 11.13 -48.47 11.13 C-48.14 10.47 -47.81 9.81 -47.47 9.13 C-45.03 8.06 -45.03 8.06 -42.03 7.01 C-41.04 6.66 -40.05 6.3 -39.03 5.94 C-36.47 5.13 -36.47 5.13 -34.47 5.13 C-34.47 4.47 -34.47 3.81 -34.47 3.13 C-31.83 3.13 -29.19 3.13 -26.47 3.13 C-26.14 2.47 -25.81 1.81 -25.47 1.13 C-17.31 -0.78 -8.34 -0.01 0 0 Z " fill="#C9DFDA" transform="translate(200.4684419631958,376.86577892303467)"/>
<path d="M0 0 C29.84 -0.11 59.69 -0.2 89.53 -0.26 C93.06 -0.26 96.59 -0.27 100.12 -0.27 C101.17 -0.28 101.17 -0.28 102.24 -0.28 C113.6 -0.3 124.95 -0.34 136.3 -0.39 C147.96 -0.43 159.62 -0.46 171.29 -0.47 C177.83 -0.48 184.37 -0.49 190.92 -0.53 C197.09 -0.56 203.25 -0.57 209.42 -0.57 C211.68 -0.57 213.93 -0.58 216.19 -0.6 C228.16 -0.69 238.17 -0.64 249 5 C250.2 5.58 250.2 5.58 251.42 6.17 C253.39 7.13 255.29 8.16 257.19 9.25 C257.86 9.63 258.53 10.01 259.23 10.41 C265.19 13.91 270.06 18.18 275 23 C276.33 24.09 277.66 25.17 279 26.25 C292.97 38.51 302.44 56.9 309 74 C309 74.66 309 75.32 309 76 C310.7 75.96 310.7 75.96 312.44 75.92 C392.43 74.2 472.43 73.88 552.43 73.76 C559.05 73.75 565.67 73.74 572.29 73.72 C580.41 73.69 588.54 73.68 596.66 73.68 C600.87 73.68 605.07 73.67 609.28 73.65 C613.17 73.64 617.06 73.63 620.95 73.64 C622.36 73.64 623.78 73.64 625.2 73.63 C627.12 73.62 629.05 73.62 630.97 73.63 C632.05 73.63 633.12 73.63 634.23 73.63 C637.36 74.05 638.77 74.79 641 77 C641 77.66 641 78.32 641 79 C641.69 79.05 642.39 79.09 643.11 79.14 C647.2 80.36 649.38 82.8 652.31 85.81 C653.14 86.61 653.14 86.61 653.98 87.43 C658 91.49 658 91.49 658 96 C658.99 96 659.98 96 661 96 C666.28 105.66 670.61 114.3 667.89 125.42 C665.37 132.7 661.37 139.48 656 145 C655.34 145 654.68 145 654 145 C654 145.66 654 146.32 654 147 C652.35 147.66 650.7 148.32 649 149 C649 149.66 649 150.32 649 151 C647.03 152.38 645.03 153.71 643 155 C642.67 155.33 642.34 155.66 642 156 C639.92 156.1 637.85 156.13 635.77 156.14 C635.11 156.14 634.44 156.14 633.76 156.15 C631.52 156.15 629.27 156.15 627.03 156.15 C625.41 156.16 623.8 156.16 622.18 156.17 C617.72 156.18 613.26 156.18 608.81 156.19 C604 156.2 599.2 156.21 594.4 156.22 C582.79 156.24 571.19 156.26 559.58 156.27 C556.3 156.27 553.02 156.28 549.74 156.28 C529.4 156.31 509.06 156.33 488.71 156.34 C484 156.34 479.28 156.35 474.57 156.35 C473.39 156.35 472.22 156.35 471.01 156.35 C452.03 156.37 433.05 156.4 414.07 156.44 C394.59 156.48 375.11 156.51 355.63 156.51 C344.69 156.51 333.75 156.53 322.81 156.56 C313.49 156.59 304.17 156.6 294.85 156.59 C290.1 156.58 285.34 156.58 280.59 156.61 C276.23 156.63 271.88 156.63 267.52 156.61 C265.95 156.61 264.37 156.62 262.8 156.63 C253.99 156.71 246.36 156.39 239 151 C233.91 145.95 230.98 140.11 230 133 C230.01 130.86 230.11 128.73 230.21 126.59 C230.68 115.83 228.3 109.63 222 101 C221.34 100.07 220.68 99.15 220 98.2 C214.02 90.28 206.38 81.18 195.98 79.72 C193.73 79.6 191.5 79.57 189.25 79.58 C188.4 79.57 187.55 79.57 186.67 79.56 C183.85 79.53 181.03 79.53 178.21 79.52 C176.22 79.51 174.22 79.49 172.22 79.48 C166.89 79.43 161.56 79.41 156.23 79.39 C147.47 79.35 138.7 79.29 129.94 79.23 C127.76 79.21 125.59 79.2 123.42 79.18 C110.25 79.1 97.1 78.94 83.95 78.55 C82.67 78.51 81.39 78.48 80.07 78.44 C74.42 78.28 68.77 78.09 63.12 77.86 C61.19 77.81 59.25 77.75 57.32 77.7 C56.49 77.65 55.66 77.61 54.8 77.56 C45.13 77.35 38.15 83.12 31.36 89.48 C21.72 99.76 17.89 111.04 17.35 124.79 C16.9 135.41 13.8 144.14 6.2 151.82 C0.69 156.7 -3.24 158.3 -10.68 158.25 C-11.46 158.25 -12.24 158.25 -13.05 158.25 C-15.67 158.26 -18.29 158.25 -20.92 158.24 C-22.8 158.24 -24.69 158.25 -26.58 158.25 C-31.74 158.25 -36.91 158.25 -42.08 158.24 C-47.57 158.23 -53.06 158.23 -58.56 158.23 C-69.16 158.23 -79.77 158.22 -90.37 158.2 C-98.91 158.19 -107.45 158.18 -116 158.18 C-173.25 158.14 -230.5 158.03 -287.75 157.56 C-288.96 157.55 -290.17 157.54 -291.42 157.53 C-304.66 157.42 -317.9 157.29 -331.14 157.11 C-338.27 157.02 -345.39 156.97 -352.52 156.94 C-357.72 156.91 -362.91 156.86 -368.11 156.81 C-370.61 156.79 -373.1 156.78 -375.59 156.77 C-379.04 156.77 -382.49 156.73 -385.94 156.69 C-386.96 156.69 -387.98 156.7 -389.03 156.7 C-395.59 156.58 -399.16 155.55 -404 151 C-404 150.01 -404 149.02 -404 148 C-405.11 147.63 -405.11 147.63 -406.25 147.25 C-410.58 145.28 -413.28 142.44 -415 138 C-415 137.01 -415 136.02 -415 135 C-415.66 135 -416.32 135 -417 135 C-420.48 128.08 -421.39 121.7 -421.38 114.06 C-421.38 113.23 -421.38 112.41 -421.38 111.55 C-421.3 107.42 -421.06 104.66 -419 101 C-418.34 101 -417.68 101 -417 101 C-417.5 98.52 -417.5 98.52 -418 96 C-417.01 95.5 -417.01 95.5 -416 95 C-414.69 92.69 -413.84 90.52 -413 88 C-410.56 85.83 -408.17 84.09 -405.31 82.5 C-402.81 80.88 -402.04 79.75 -401 77 C-400.34 77 -399.68 77 -399 77 C-399 76.34 -399 75.68 -399 75 C-287.46 75 -175.92 75 -61 75 C-60.34 72.69 -59.68 70.38 -59 68 C-57.98 64.66 -56.94 61.32 -55.9 57.99 C-55.38 56.27 -54.89 54.55 -54.46 52.81 C-53.84 50.38 -52.83 48.15 -51.81 45.86 C-51.03 44.06 -50.32 42.22 -49.62 40.38 C-47.88 36.76 -45.89 34.74 -43 32 C-41.62 29.66 -40.86 27.59 -40 25 C-39.38 24.71 -38.76 24.42 -38.12 24.12 C-35.78 23.12 -35.78 23.12 -34.5 20.5 C-32.84 17.73 -31.85 17.29 -29 16 C-28.34 15.01 -27.68 14.02 -27 13 C-25.67 12.66 -24.34 12.32 -23 12 C-21.98 11.02 -20.98 10.02 -20 9 C-18.06 7.94 -18.06 7.94 -16 7 C-15.4 6.65 -14.8 6.3 -14.19 5.94 C-12 5 -12 5 -8.31 4.5 C-7.22 4.34 -6.13 4.17 -5 4 C-4.67 3.34 -4.34 2.68 -4 2 C-2.68 2 -1.36 2 0 2 C0 1.34 0 0.68 0 0 Z " fill="#C8DED9" transform="translate(516,181)"/>
<path d="M0 0 C2.03 -0.37 2.03 -0.37 4.57 -0.36 C5.53 -0.36 6.49 -0.37 7.48 -0.37 C8.54 -0.36 9.6 -0.35 10.69 -0.34 C11.8 -0.34 12.92 -0.34 14.06 -0.34 C17.75 -0.34 21.44 -0.32 25.13 -0.29 C27.69 -0.29 30.24 -0.28 32.79 -0.28 C38.83 -0.27 44.88 -0.25 50.92 -0.22 C57.8 -0.18 64.67 -0.17 71.55 -0.15 C85.7 -0.12 99.85 -0.07 114 0 C114.06 1.92 114.1 3.83 114.13 5.75 C114.17 7.35 114.17 7.35 114.21 8.98 C113.94 12.85 112.72 14.91 110.48 17.97 C108.84 20.23 107.56 22.54 106.25 25 C103.67 29.78 101.04 34.52 98.38 39.25 C98 39.91 97.63 40.57 97.25 41.25 C94.85 45.51 92.43 49.76 90 54 C89.34 54 88.68 54 88 54 C87.93 54.82 87.86 55.63 87.79 56.48 C86.78 60.99 84.77 64.42 82.44 68.38 C81.8 69.48 81.8 69.48 81.15 70.61 C80.11 72.41 79.06 74.2 78 76 C77.34 76 76.68 76 76 76 C75.83 77.08 75.83 77.08 75.67 78.19 C74.96 81.19 73.9 83.29 72.35 85.94 C71.82 86.85 71.29 87.77 70.74 88.71 C70.19 89.65 69.63 90.59 69.06 91.56 C67.97 93.44 66.88 95.31 65.79 97.19 C65.3 98.02 64.81 98.85 64.31 99.7 C63.48 101.16 62.68 102.66 61.95 104.18 C61 106 61 106 59 108 C58.31 109.66 57.65 111.33 57 113 C56.09 114.78 55.14 116.55 54.18 118.3 C53.64 119.28 53.11 120.25 52.56 121.26 C52 122.27 51.45 123.27 50.88 124.31 C50.31 125.34 49.75 126.37 49.17 127.42 C47.78 129.95 46.39 132.48 45 135 C44.34 135 43.68 135 43 135 C42.89 135.73 42.77 136.45 42.65 137.2 C41.98 140.08 41.01 142.19 39.56 144.75 C39.13 145.53 38.7 146.31 38.25 147.11 C37 149 37 149 35 150 C34.01 152.31 33.02 154.62 32 157 C81.5 157 131 157 182 157 C182 160.3 182 163.6 182 167 C181.01 167.33 180.02 167.66 179 168 C179 168.66 179 169.32 179 170 C177.86 170.4 177.86 170.4 176.69 170.81 C174.1 171.96 172.91 173 171 175 C170.34 175 169.68 175 169 175 C168.77 175.57 168.54 176.15 168.3 176.74 C166.67 179.58 164.74 181.15 162.19 183.19 C161.34 183.88 160.48 184.58 159.61 185.29 C156.97 187.02 155.1 187.63 152 188 C151.67 188.99 151.34 189.98 151 191 C149.44 192.61 149.44 192.61 147.56 194.19 C146.95 194.72 146.33 195.25 145.69 195.79 C144 197 144 197 142 197 C141.67 197.99 141.34 198.98 141 200 C139.11 201.18 139.11 201.18 136.75 202.31 C132.41 204.6 130.07 207.14 127 211 C120.1 217 120.1 217 116 217 C115.79 217.56 115.59 218.12 115.38 218.7 C113.51 221.82 110.9 223.65 108 225.75 C107.45 226.16 106.91 226.57 106.34 227 C102.27 230 102.27 230 100 230 C99.67 230.99 99.34 231.98 99 233 C97.67 233.67 96.33 234.33 95 235 C93.31 236.65 91.65 238.31 90 240 C86.38 243 86.38 243 84 243 C84 243.66 84 244.32 84 245 C83.44 245.23 82.89 245.45 82.31 245.69 C79.86 246.94 79.86 246.94 77.81 249.19 C74.18 252.82 70.31 256.2 66 259 C65.01 259 64.02 259 63 259 C62.8 259.56 62.6 260.11 62.39 260.68 C60.45 263.92 57.67 265.85 54.69 268.06 C53.83 268.71 53.83 268.71 52.96 269.38 C50.49 271.24 48.08 272.95 45.39 274.5 C42.49 276.32 40.42 278.57 38 281 C35.22 283.3 32.36 285.49 29.5 287.69 C28.31 288.6 28.31 288.6 27.1 289.53 C25.5 290.77 23.9 292 22.29 293.23 C20.19 294.86 18.09 296.49 16 298.14 C15.4 298.6 14.81 299.07 14.19 299.55 C12.6 300.8 11 302.05 9.41 303.3 C7 305 7 305 5 305 C4.62 305.9 4.62 305.9 4.23 306.82 C2.84 309.28 1.55 310.33 -0.75 311.94 C-3.39 313.83 -5.92 315.74 -8.38 317.88 C-11 320 -11 320 -13 320 C-13 320.66 -13 321.32 -13 322 C-14.57 323.27 -16.21 324.47 -17.88 325.62 C-22.76 329.07 -27.41 332.71 -32 336.53 C-34 338 -34 338 -36 338 C-36 338.66 -36 339.32 -36 340 C-38.03 341.71 -40.06 343.3 -42.19 344.88 C-43.35 345.75 -44.51 346.62 -45.67 347.49 C-46.52 348.12 -46.52 348.12 -47.38 348.76 C-48.87 349.9 -50.31 351.11 -51.74 352.32 C-54 354 -54 354 -57 354 C-57.33 354.99 -57.66 355.98 -58 357 C-60.11 358.97 -60.11 358.97 -62.75 361.06 C-63.61 361.75 -64.47 362.45 -65.36 363.16 C-68 365 -68 365 -70.77 366.06 C-71.87 366.52 -71.87 366.52 -73 367 C-73.33 367.99 -73.66 368.98 -74 370 C-76.1 371.67 -78.16 373.19 -80.38 374.69 C-80.97 375.1 -81.56 375.52 -82.16 375.95 C-86.62 379 -86.62 379 -90 379 C-90.33 379.99 -90.66 380.98 -91 382 C-98.03 386.76 -104.55 389.01 -113 388 C-113.35 383.06 -112.3 380.33 -110 376 C-109.86 375.13 -109.71 374.27 -109.56 373.38 C-108.83 370.3 -107.21 369.21 -105 367 C-104.2 364.36 -104.2 364.36 -104 362 C-103.34 362 -102.68 362 -102 362 C-101.94 361.11 -101.88 360.23 -101.81 359.31 C-100.8 355.18 -99.05 353.9 -96 351 C-93.76 347.76 -92 345.04 -92 341 C-91.01 340.34 -90.02 339.68 -89 339 C-86.84 335.64 -85.22 333.1 -84.44 329.19 C-84.29 328.47 -84.15 327.74 -84 327 C-83.01 326.34 -82.02 325.68 -81 325 C-79.81 322.93 -79.81 322.93 -78.88 320.56 C-78.38 319.39 -78.38 319.39 -77.87 318.19 C-77.19 316.48 -76.58 314.74 -76 313 C-75.01 312.34 -74.02 311.68 -73 311 C-71.84 308.53 -71.84 308.53 -71 306 C-70 304 -70 304 -68.56 301.69 C-66.98 299.13 -66.98 299.13 -66.12 296.69 C-64.26 292.24 -61.81 287.76 -58.34 284.38 C-56.77 283.08 -56.77 283.08 -57 281 C-56.34 281 -55.68 281 -55 281 C-53.58 277.68 -52.61 274.56 -52 271 C-51.34 271 -50.68 271 -50 271 C-49.32 269.89 -48.64 268.77 -47.94 267.62 C-47.55 267 -47.17 266.37 -46.78 265.73 C-46.52 265.16 -46.26 264.59 -46 264 C-46.33 263.34 -46.66 262.68 -47 262 C-46.34 261.34 -45.68 260.68 -45 260 C-44.67 259.01 -44.34 258.02 -44 257 C-43.67 256.34 -43.34 255.68 -43 255 C-42.34 255 -41.68 255 -41 255 C-40.9 254.24 -40.79 253.47 -40.69 252.69 C-39.93 249.71 -39.15 249.06 -37 247 C-35.43 243.63 -35.43 243.63 -35 240 C-34.01 240 -33.02 240 -32 240 C-31.5 237.03 -31.5 237.03 -31 234 C-30.34 234 -29.68 234 -29 234 C-28.35 232.14 -28.35 232.14 -27.69 230.25 C-26.5 227.05 -25.1 224.7 -23 222 C-23 221.01 -23 220.02 -23 219 C-22.34 218.67 -21.68 218.34 -21 218 C-20.34 215.47 -20.34 215.47 -20 213 C-19.34 213.33 -18.68 213.66 -18 214 C-18 213.01 -18 212.02 -18 211 C-17.34 210.67 -16.68 210.34 -16 210 C-15.81 208.86 -15.81 208.86 -15.62 207.69 C-14.85 204.37 -13.4 203.33 -11 201 C-10.21 198.86 -10.21 198.86 -10 197 C-9.34 197 -8.68 197 -8 197 C-7.71 195.87 -7.42 194.73 -7.12 193.56 C-6.57 191.8 -6.57 191.8 -6 190 C-5.34 189.67 -4.68 189.34 -4 189 C-3.35 186.98 -3.35 186.98 -3 185 C-2.01 185 -1.02 185 0 185 C-2.6 183.7 -4.5 183.86 -7.4 183.84 C-8.55 183.83 -9.7 183.82 -10.88 183.81 C-12.14 183.81 -13.41 183.8 -14.71 183.79 C-16.05 183.79 -17.39 183.78 -18.73 183.76 C-22.38 183.74 -26.02 183.72 -29.67 183.7 C-33.47 183.67 -37.28 183.65 -41.08 183.62 C-48.29 183.57 -55.51 183.53 -62.72 183.48 C-70.92 183.43 -79.13 183.38 -87.34 183.32 C-104.23 183.21 -121.11 183.1 -138 183 C-138.05 180.44 -138.09 177.88 -138.12 175.31 C-138.14 174.59 -138.16 173.87 -138.18 173.13 C-138.21 168.98 -138.01 165.67 -136 162 C-134.67 161.32 -133.34 160.65 -132 160 C-131.35 157.98 -131.35 157.98 -131 156 C-130.34 155.67 -129.68 155.34 -129 155 C-128.73 154.38 -128.46 153.76 -128.19 153.12 C-127 151 -127 151 -124.44 149.5 C-121.82 148.26 -121.82 148.26 -121.38 145.88 C-121.19 144.95 -121.19 144.95 -121 144 C-120.01 143.67 -119.02 143.34 -118 143 C-117.54 141.79 -117.54 141.79 -117.06 140.56 C-115.76 137.42 -114.93 137.47 -112 136 C-110.03 133.34 -108.36 130.71 -106.88 127.75 C-105.17 124.35 -101.68 121.68 -99 119 C-99 118.34 -99 117.68 -99 117 C-98.34 117 -97.68 117 -97 117 C-96.75 116.24 -96.5 115.47 -96.25 114.69 C-94.87 111.72 -93.69 110.77 -91 109 C-88.34 106.34 -86.55 103.26 -84.54 100.09 C-83 98 -83 98 -80 96 C-79.3 94.68 -78.64 93.35 -78 92 C-77.04 90.72 -76.04 89.47 -75 88.25 C-74.48 87.64 -73.97 87.02 -73.44 86.39 C-72 85 -72 85 -70 85 C-69.89 84.42 -69.79 83.83 -69.68 83.23 C-68.9 80.68 -67.87 79.31 -66.12 77.31 C-65.61 76.71 -65.1 76.11 -64.57 75.49 C-63 74 -63 74 -60 73 C-59.69 72.2 -59.38 71.39 -59.06 70.56 C-57.78 67.47 -56.91 67.36 -54 66 C-52.59 63.7 -51.86 61.57 -51 59 C-50.34 59 -49.68 59 -49 59 C-47.88 56.88 -47.88 56.88 -47 54 C-46.34 54 -45.68 54 -45 54 C-44.5 53.01 -44.5 53.01 -44 52 C-43.5 51.53 -43.01 51.05 -42.5 50.56 C-40.75 48.96 -40.75 48.96 -40 46 C-39.42 45.75 -38.85 45.5 -38.25 45.25 C-34.01 42.89 -31.5 38.51 -30 34 C-29.01 33.67 -28.02 33.34 -27 33 C-26.63 31.68 -26.3 30.34 -26 29 C-24.7 27.11 -24.7 27.11 -23.12 25.31 C-22.61 24.71 -22.1 24.11 -21.57 23.49 C-20 22 -20 22 -17 21 C-16.88 20.38 -16.75 19.76 -16.62 19.12 C-15.72 16.05 -13.67 15.58 -11 14 C-11 13.01 -11 12.02 -11 11 C-10.01 10.67 -9.02 10.34 -8 10 C-7.69 9.2 -7.38 8.39 -7.06 7.56 C-5.79 4.49 -4.94 4.28 -2 3 C-1.34 2.01 -0.68 1.02 0 0 Z M-6 191 C-5 193 -5 193 -5 193 Z " fill="#C8DED9" transform="translate(622,564)"/>
<path d="M0 0 C7.79 -0.13 15.58 -0.21 23.38 -0.27 C26.02 -0.3 28.67 -0.33 31.32 -0.38 C35.14 -0.44 38.95 -0.47 42.77 -0.49 C43.95 -0.51 45.12 -0.54 46.33 -0.57 C55.35 -0.57 62.28 1.59 69.17 7.54 C83.05 21.78 85.93 34.05 86.12 53.44 C86.09 55.63 86.05 57.81 86 60 C86.01 61.01 86.01 61.01 86.01 62.04 C86.05 72.19 85.35 80.2 78 88 C76.69 88.71 75.36 89.38 74 90 C73.71 90.6 73.42 91.2 73.12 91.81 C71.75 94.49 69.83 95.94 67.5 97.79 C65.88 99.04 65.88 99.04 64.19 100.94 C56.24 108.44 49.81 109.97 39 110 C37.31 110.03 35.61 110.05 33.92 110.08 C23.9 110.19 13.98 109.94 4 109 C4 108.01 4 107.02 4 106 C3.44 106.22 2.88 106.44 2.3 106.67 C-0.9 107.13 -2.13 106.05 -4.75 104.25 C-5.55 103.72 -6.35 103.19 -7.17 102.64 C-7.78 102.1 -8.38 101.56 -9 101 C-9 100.01 -9 99.02 -9 98 C-10.32 97.67 -11.64 97.34 -13 97 C-13 96.01 -13 95.02 -13 94 C-14.32 93.67 -15.64 93.34 -17 93 C-17.33 91.68 -17.66 90.36 -18 89 C-18.66 89 -19.32 89 -20 89 C-24 83.71 -24 83.71 -24 80 C-24.66 80 -25.32 80 -26 80 C-27.61 76.35 -28.45 72.95 -29 69 C-29.33 69 -29.66 69 -30 69 C-29.94 68.14 -29.88 67.28 -29.82 66.39 C-29.42 60.58 -29.03 54.77 -28.75 48.95 C-28.68 47.68 -28.68 47.68 -28.62 46.39 C-28.54 44.74 -28.47 43.09 -28.39 41.44 C-28.11 35.53 -27.38 30.47 -25 25 C-24.73 24.34 -24.46 23.68 -24.19 23 C-22.54 20.23 -20.31 18.21 -18 16 C-16.43 14.44 -14.87 12.88 -13.31 11.31 C-8.98 6.98 -5.35 3.97 0 1 C0 0.67 0 0.34 0 0 Z " fill="#C8DED9" transform="translate(301,551)"/>
<path d="M0 0 C4.95 -0.03 9.9 -0.08 14.85 -0.16 C19.71 -0.24 24.57 -0.29 29.43 -0.3 C31.26 -0.31 33.09 -0.34 34.91 -0.38 C49.67 -0.69 60.3 2.53 72.26 11.43 C82.27 21.18 82.37 34.86 82.76 47.98 C82.82 50.02 82.91 52.06 82.99 54.11 C83.06 56.05 83.06 56.05 83.12 58.03 C83.18 59.78 83.18 59.78 83.24 61.58 C83.07 64.5 83.07 64.5 81.07 67.5 C78.28 67.87 78.28 67.87 74.65 67.86 C73.98 67.86 73.31 67.86 72.62 67.87 C70.38 67.87 68.13 67.85 65.88 67.84 C64.28 67.84 62.67 67.84 61.07 67.84 C56.7 67.84 52.33 67.82 47.96 67.8 C43.39 67.78 38.83 67.78 34.27 67.78 C25.62 67.77 16.98 67.74 8.33 67.71 C-1.51 67.68 -11.35 67.66 -21.19 67.65 C-41.43 67.62 -61.68 67.56 -81.93 67.5 C-82.99 65.53 -83.99 63.53 -84.93 61.5 C-84.6 60.84 -84.27 60.18 -83.93 59.5 C-83.85 57.93 -83.84 56.37 -83.86 54.81 C-83.87 53.86 -83.88 52.91 -83.89 51.94 C-83.91 49.96 -83.94 47.99 -83.97 46.01 C-84.1 29.66 -84.1 29.66 -80.99 24.18 C-80.48 23.26 -80.48 23.26 -79.96 22.32 C-79.62 21.72 -79.28 21.12 -78.93 20.5 C-78.47 19.48 -78.47 19.48 -78 18.45 C-76.8 16.26 -75.57 15.16 -73.61 13.62 C-71.17 11.63 -69.16 9.68 -67.24 7.18 C-64.88 4.44 -64.33 3.92 -60.93 3.5 C-60.26 3.17 -59.59 2.85 -58.9 2.52 C-54.74 1.09 -50.77 1.04 -46.4 0.9 C-45.47 0.86 -44.54 0.82 -43.58 0.78 C-29.06 0.23 -14.53 0.09 0 0 Z " fill="#C9DFDA" transform="translate(993.9259386062622,176.5033712387085)"/>
<path d="M0 0 C1.08 -0.01 2.16 -0.01 3.27 -0.02 C6.83 -0.03 10.38 -0.02 13.94 -0.01 C16.42 -0.01 18.9 -0.02 21.38 -0.02 C26.57 -0.02 31.76 -0.02 36.95 -0 C43.6 0.01 50.24 0 56.89 -0.01 C62.01 -0.02 67.13 -0.02 72.25 -0.01 C74.7 -0.01 77.14 -0.01 79.59 -0.02 C83.02 -0.03 86.45 -0.02 89.88 0 C90.88 -0.01 91.89 -0.01 92.92 -0.02 C104.33 0.08 112.11 4.44 120.23 12.31 C125.43 18.63 126.52 23.21 126.36 31.22 C126.36 32.6 126.36 32.6 126.35 34.01 C126.34 35.94 126.32 37.87 126.29 39.81 C126.25 42.77 126.23 45.74 126.22 48.71 C126.21 50.59 126.19 52.47 126.18 54.35 C126.17 55.24 126.16 56.13 126.15 57.05 C126.06 63.27 126.06 63.27 124.94 64.39 C110.64 65.99 96.05 65.73 81.69 65.95 C79.71 65.98 79.71 65.98 77.7 66.01 C39.12 66.63 0.52 66.48 -38.06 66.39 C-39.95 62.88 -40.31 60.49 -40.29 56.48 C-40.29 55.32 -40.29 54.17 -40.29 52.98 C-40.27 51.77 -40.26 50.57 -40.25 49.33 C-40.25 47.56 -40.25 47.56 -40.25 45.76 C-40.14 24.57 -40.14 24.57 -37.06 17.39 C-34.25 15.26 -34.25 15.26 -31.06 13.39 C-29.36 11.76 -27.68 10.1 -26.06 8.39 C-25.4 7.73 -24.74 7.07 -24.06 6.39 C-23.73 6.72 -23.4 7.05 -23.06 7.39 C-22.73 6.4 -22.4 5.41 -22.06 4.39 C-21.07 4.06 -20.08 3.73 -19.06 3.39 C-17.91 2.88 -16.76 2.37 -15.57 1.85 C-10.4 -0.08 -5.46 -0.03 0 0 Z " fill="#C9DFDA" transform="translate(237.0625,177.61181640625)"/>
<path d="M0 0 C10.67 0.11 21.35 0.22 32.02 0.34 C36.98 0.39 41.93 0.45 46.89 0.5 C51.67 0.54 56.45 0.6 61.23 0.65 C63.05 0.67 64.88 0.69 66.71 0.71 C69.26 0.73 71.81 0.76 74.36 0.79 C75.5 0.8 75.5 0.8 76.67 0.81 C81.89 0.89 81.89 0.89 83 2 C83.1 4.92 83.13 7.82 83.11 10.74 C83.11 11.66 83.11 12.58 83.11 13.52 C83.11 16.57 83.11 19.61 83.1 22.66 C83.1 24.77 83.09 26.87 83.09 28.98 C83.09 34.53 83.08 40.09 83.07 45.64 C83.06 51.31 83.05 56.97 83.05 62.63 C83.04 73.76 83.02 84.88 83 96 C82.04 95.98 82.04 95.98 81.07 95.96 C79.83 95.95 79.83 95.95 78.56 95.94 C77.74 95.93 76.92 95.91 76.07 95.9 C74.01 95.77 74.01 95.77 73 97 C71.05 97.1 69.09 97.13 67.14 97.13 C65.88 97.13 64.63 97.14 63.33 97.14 C61.95 97.14 60.57 97.14 59.19 97.13 C57.79 97.13 56.38 97.13 54.97 97.14 C52.02 97.14 49.07 97.14 46.12 97.13 C42.33 97.12 38.54 97.13 34.75 97.13 C31.85 97.14 28.94 97.14 26.04 97.13 C24.64 97.13 23.24 97.13 21.85 97.14 C19.9 97.14 17.95 97.13 15.99 97.13 C14.88 97.13 13.77 97.13 12.63 97.13 C10 97 10 97 8 96 C6.31 95.96 4.62 95.96 2.94 96 C1.29 96.04 -0.35 96.05 -2 96 C-4.09 93.91 -3.16 89.37 -3.17 86.49 C-3.17 85.6 -3.18 84.71 -3.18 83.79 C-3.19 80.82 -3.19 77.85 -3.19 74.88 C-3.19 73.86 -3.19 72.85 -3.19 71.81 C-3.18 55.44 -2.77 39.1 -2.06 22.75 C-2.02 21.72 -1.98 20.68 -1.93 19.62 C-1.81 16.7 -1.67 13.78 -1.54 10.86 C-1.5 9.99 -1.46 9.12 -1.42 8.22 C-1.12 2.23 -1.12 2.23 0 0 Z " fill="#4B7077" transform="translate(924,873)"/>
<path d="M0 0 C27.72 0 55.44 0 84 0 C84 19.47 84 38.94 84 59 C63.33 59.04 63.33 59.04 54.54 59.05 C48.54 59.05 42.54 59.06 36.54 59.08 C31.7 59.09 26.86 59.09 22.03 59.09 C20.18 59.1 18.33 59.1 16.48 59.11 C13.9 59.11 11.31 59.11 8.73 59.11 C7.96 59.12 7.19 59.12 6.39 59.12 C1.11 59.11 1.11 59.11 0 58 C-0.09 56.19 -0.12 54.38 -0.11 52.56 C-0.11 51.38 -0.11 50.21 -0.11 48.99 C-0.11 47.75 -0.1 46.5 -0.1 45.21 C-0.1 44.08 -0.1 42.94 -0.09 41.76 C-0.09 37.49 -0.08 33.21 -0.06 28.94 C-0.04 19.39 -0.02 9.84 0 0 Z " fill="#4B7077" transform="translate(923,709)"/>
<path d="M0 0 C27.72 0 55.44 0 84 0 C84 19.47 84 38.94 84 59 C63.33 59.04 63.33 59.04 54.54 59.05 C48.54 59.05 42.54 59.06 36.54 59.08 C31.7 59.09 26.86 59.09 22.03 59.09 C20.18 59.1 18.33 59.1 16.48 59.11 C13.9 59.11 11.31 59.11 8.73 59.11 C7.96 59.12 7.19 59.12 6.39 59.12 C1.11 59.11 1.11 59.11 0 58 C-0.09 56.19 -0.12 54.38 -0.11 52.56 C-0.11 51.38 -0.11 50.21 -0.11 48.99 C-0.11 47.75 -0.1 46.5 -0.1 45.21 C-0.1 44.08 -0.1 42.94 -0.09 41.76 C-0.09 37.49 -0.08 33.21 -0.06 28.94 C-0.04 19.39 -0.02 9.84 0 0 Z " fill="#C9DFDA" transform="translate(923,622)"/>
<path d="M0 0 C27.72 0 55.44 0 84 0 C84 19.47 84 38.94 84 59 C63.33 59.04 63.33 59.04 54.54 59.05 C48.54 59.05 42.54 59.06 36.54 59.08 C31.7 59.09 26.86 59.09 22.03 59.09 C20.18 59.1 18.33 59.1 16.48 59.11 C13.9 59.11 11.31 59.11 8.73 59.11 C7.96 59.12 7.19 59.12 6.39 59.12 C1.11 59.11 1.11 59.11 0 58 C-0.09 56.19 -0.12 54.38 -0.11 52.56 C-0.11 51.38 -0.11 50.21 -0.11 48.99 C-0.11 47.75 -0.1 46.5 -0.1 45.21 C-0.1 44.08 -0.1 42.94 -0.09 41.76 C-0.09 37.49 -0.08 33.21 -0.06 28.94 C-0.04 19.39 -0.02 9.84 0 0 Z " fill="#C9DFDA" transform="translate(923,539)"/>
<path d="M0 0 C1.51 0.01 3.01 0.04 4.52 0.06 C5.33 0.07 6.15 0.08 7 0.09 C9.72 0.12 12.44 0.16 15.16 0.2 C17.05 0.23 18.93 0.25 20.81 0.27 C25.77 0.34 30.74 0.41 35.7 0.48 C40.76 0.55 45.82 0.61 50.88 0.68 C60.82 0.81 70.75 0.94 80.69 1.08 C80.74 7.88 80.78 14.67 80.8 21.47 C80.81 23.78 80.82 26.08 80.84 28.39 C80.87 31.72 80.88 35.06 80.89 38.39 C80.9 39.41 80.91 40.43 80.92 41.48 C80.92 47.91 80.21 53.83 78.69 60.08 C68.15 60.11 57.6 60.12 47.06 60.13 C42.16 60.14 37.27 60.15 32.37 60.16 C27.65 60.17 22.93 60.17 18.21 60.18 C16.41 60.18 14.6 60.18 12.8 60.19 C10.28 60.2 7.76 60.2 5.24 60.2 C4.49 60.2 3.73 60.2 2.96 60.21 C-2.2 60.2 -2.2 60.2 -3.31 59.08 C-3.44 57.28 -3.5 55.47 -3.53 53.66 C-3.55 52.5 -3.58 51.34 -3.6 50.15 C-3.62 48.89 -3.64 47.63 -3.66 46.33 C-3.68 45.05 -3.71 43.77 -3.73 42.44 C-3.78 39.72 -3.82 37 -3.87 34.28 C-3.92 30.79 -3.99 27.29 -4.05 23.8 C-4.11 20.48 -4.17 17.15 -4.22 13.83 C-4.26 11.94 -4.26 11.94 -4.3 10.01 C-4.31 8.86 -4.33 7.7 -4.35 6.5 C-4.36 5.48 -4.38 4.45 -4.4 3.4 C-4.26 -0.28 -3.79 0.09 0 0 Z " fill="#4B7077" transform="translate(926.3092193603516,794.9177093505859)"/>
<path d="M0 0 C275.22 0 550.44 0 834 0 C834 0.33 834 0.66 834 1 C558.78 1 283.56 1 0 1 C0 0.67 0 0.34 0 0 Z " fill="#4B7077" transform="translate(221,1042)"/>
<path d="M0 0 C0.33 0 0.66 0 1 0 C1 76.89 1 153.78 1 233 C0.67 233 0.34 233 0 233 C0 156.11 0 79.22 0 0 Z " fill="#C8DED9" transform="translate(113,453)"/>
<path d="M0 0 C0.33 0 0.66 0 1 0 C1 75.24 1 150.48 1 228 C0.67 228 0.34 228 0 228 C0 152.76 0 77.52 0 0 Z " fill="#4B7077" transform="translate(1070,784)"/>
<path d="M0 0 C75.24 0 150.48 0 228 0 C228 0.33 228 0.66 228 1 C152.76 1 77.52 1 0 1 C0 0.67 0 0.34 0 0 Z " fill="#C9DFDA" transform="translate(396,375)"/>
<path d="M0 0 C0.33 0 0.66 0 1 0 C1 70.29 1 140.58 1 213 C0.67 213 0.34 213 0 213 C0 142.71 0 72.42 0 0 Z " fill="#C9DFDA" transform="translate(1070,468)"/>
<path d="M0 0 C46.53 0 93.06 0 141 0 C141 0.33 141 0.66 141 1 C94.47 1 47.94 1 0 1 C0 0.67 0 0.34 0 0 Z " fill="#C9DFDA" transform="translate(657,719)"/>
<path d="M0 0 C46.53 0 93.06 0 141 0 C141 0.33 141 0.66 141 1 C94.47 1 47.94 1 0 1 C0 0.67 0 0.34 0 0 Z " fill="#C9DFDA" transform="translate(627,375)"/>
<path d="M0 0 C40.59 0 81.18 0 123 0 C123 0.33 123 0.66 123 1 C82.41 1 41.82 1 0 1 C0 0.67 0 0.34 0 0 Z " fill="#C9DFDA" transform="translate(860,375)"/>
<path d="M0 0 C35.31 0 70.62 0 107 0 C107 0.33 107 0.66 107 1 C71.69 1 36.38 1 0 1 C0 0.67 0 0.34 0 0 Z " fill="#C9DFDA" transform="translate(625,562)"/>
<path d="M0 0 C34.32 0 68.64 0 104 0 C104 0.33 104 0.66 104 1 C69.68 1 35.36 1 0 1 C0 0.67 0 0.34 0 0 Z " fill="#C9DFDA" transform="translate(985,375)"/>
<path d="M0 0 C0.33 0 0.66 0 1 0 C1 31.35 1 62.7 1 95 C0.67 95 0.34 95 0 95 C0 63.65 0 32.3 0 0 Z " fill="#4B7077" transform="translate(113,760)"/>
<path d="M0 0 C0.33 0 0.66 0 1 0 C1 28.05 1 56.1 1 85 C0.67 85 0.34 85 0 85 C0 56.95 0 28.9 0 0 Z " fill="#4B7077" transform="translate(113,859)"/>
<path d="M0 0 C26.07 0 52.14 0 79 0 C79 0.33 79 0.66 79 1 C52.93 1 26.86 1 0 1 C0 0.67 0 0.34 0 0 Z " fill="#C9DFDA" transform="translate(311,375)"/>
<path d="M0 0 C25.74 0 51.48 0 78 0 C78 0.33 78 0.66 78 1 C52.26 1 26.52 1 0 1 C0 0.67 0 0.34 0 0 Z " fill="#4B7077" transform="translate(925,794)"/>
<path d="M0 0 C25.74 0 51.48 0 78 0 C78 0.33 78 0.66 78 1 C52.26 1 26.52 1 0 1 C0 0.67 0 0.34 0 0 Z " fill="#4B7077" transform="translate(924,707)"/>
<path d="M0 0 C25.74 0 51.48 0 78 0 C78 0.33 78 0.66 78 1 C52.26 1 26.52 1 0 1 C0 0.67 0 0.34 0 0 Z " fill="#C9DFDA" transform="translate(559,180)"/>
<path d="M0 0 C25.41 0 50.82 0 77 0 C77 0.33 77 0.66 77 1 C51.59 1 26.18 1 0 1 C0 0.67 0 0.34 0 0 Z " fill="#4B7077" transform="translate(925,872)"/>
<path d="M0 0 C25.41 0 50.82 0 77 0 C77 0.33 77 0.66 77 1 C51.59 1 26.18 1 0 1 C0 0.67 0 0.34 0 0 Z " fill="#C9DFDA" transform="translate(925,620)"/>
<path d="M0 0 C25.41 0 50.82 0 77 0 C77 0.33 77 0.66 77 1 C51.59 1 26.18 1 0 1 C0 0.67 0 0.34 0 0 Z " fill="#C9DFDA" transform="translate(926,537)"/>
<path d="M0 0 C20.46 0 40.92 0 62 0 C62 0.33 62 0.66 62 1 C41.54 1 21.08 1 0 1 C0 0.67 0 0.34 0 0 Z " fill="#C9DFDA" transform="translate(145,255)"/>
<path d="M0 0 C17.82 0 35.64 0 54 0 C54 0.33 54 0.66 54 1 C36.18 1 18.36 1 0 1 C0 0.67 0 0.34 0 0 Z " fill="#C9DFDA" transform="translate(774,375)"/>
<path d="M0 0 C17.16 0 34.32 0 52 0 C52 0.33 52 0.66 52 1 C34.84 1 17.68 1 0 1 C0 0.67 0 0.34 0 0 Z " fill="#C9DFDA" transform="translate(264,176)"/>
<path d="M0 0 C0.33 0 0.66 0 1 0 C1 16.83 1 33.66 1 51 C0.67 51 0.34 51 0 51 C0 34.17 0 17.34 0 0 Z " fill="#C9DFDA" transform="translate(921,541)"/>
<path d="M0 0 C0.33 0 0.66 0 1 0 C1 16.5 1 33 1 50 C0.67 50 0.34 50 0 50 C0 33.5 0 17 0 0 Z " fill="#4B7077" transform="translate(921,799)"/>
<path d="M0 0 C0.33 0 0.66 0 1 0 C1 16.5 1 33 1 50 C0.67 50 0.34 50 0 50 C0 33.5 0 17 0 0 Z " fill="#4B7077" transform="translate(921,711)"/>
<path d="M0 0 C0.33 0 0.66 0 1 0 C1 16.17 1 32.34 1 49 C0.67 49 0.34 49 0 49 C0 32.83 0 16.66 0 0 Z " fill="#C9DFDA" transform="translate(921,624)"/>
<path d="M0 0 C0.33 0 0.66 0 1 0 C1 15.51 1 31.02 1 47 C0.67 47 0.34 47 0 47 C0 31.49 0 15.98 0 0 Z " fill="#4B7077" transform="translate(113,710)"/>
<path d="M0 0 C14.85 0 29.7 0 45 0 C45 0.33 45 0.66 45 1 C30.15 1 15.3 1 0 1 C0 0.67 0 0.34 0 0 Z " fill="#C9DFDA" transform="translate(306,549)"/>
<path d="M0 0 C13.86 0 27.72 0 42 0 C42 0.33 42 0.66 42 1 C28.14 1 14.28 1 0 1 C0 0.67 0 0.34 0 0 Z " fill="#C9DFDA" transform="translate(265,375)"/>
<path d="M0 0 C13.2 0 26.4 0 40 0 C40 0.33 40 0.66 40 1 C26.8 1 13.6 1 0 1 C0 0.67 0 0.34 0 0 Z " fill="#C9DFDA" transform="translate(656,180)"/>
<path d="M0 0 C10.89 0 21.78 0 33 0 C33 0.33 33 0.66 33 1 C22.11 1 11.22 1 0 1 C0 0.67 0 0.34 0 0 Z " fill="#C9DFDA" transform="translate(226,375)"/>
<path d="M0 0 C0.33 0 0.66 0 1 0 C1 10.56 1 21.12 1 32 C0.67 32 0.34 32 0 32 C0 21.44 0 10.88 0 0 Z " fill="#4B7077" transform="translate(113,977)"/>
<path d="M0 0 C0.33 0 0.66 0 1 0 C1 9.57 1 19.14 1 29 C0.67 29 0.34 29 0 29 C0 19.43 0 9.86 0 0 Z " fill="#4B7077" transform="translate(113,946)"/>
<path d="M0 0 C7.92 0 15.84 0 24 0 C24 0.33 24 0.66 24 1 C16.08 1 8.16 1 0 1 C0 0.67 0 0.34 0 0 Z " fill="#C9DFDA" transform="translate(834,375)"/>
<path d="M0 0 C7.59 0 15.18 0 23 0 C23 0.33 23 0.66 23 1 C15.41 1 7.82 1 0 1 C0 0.67 0 0.34 0 0 Z " fill="#C9DFDA" transform="translate(208,255)"/>
<path d="M0 0 C7.59 0 15.18 0 23 0 C23 0.33 23 0.66 23 1 C15.41 1 7.82 1 0 1 C0 0.67 0 0.34 0 0 Z " fill="#C9DFDA" transform="translate(1121,253)"/>
<path d="M0 0 C6.6 0 13.2 0 20 0 C20 0.33 20 0.66 20 1 C13.4 1 6.8 1 0 1 C0 0.67 0 0.34 0 0 Z " fill="#C9DFDA" transform="translate(833,255)"/>
<path d="M0 0 C0.33 0 0.66 0 1 0 C1 6.27 1 12.54 1 19 C0.67 19 0.34 19 0 19 C0 12.73 0 6.46 0 0 Z " fill="#4B7077" transform="translate(113,688)"/>
<path d="M0 0 C6.27 0 12.54 0 19 0 C19 0.33 19 0.66 19 1 C12.73 1 6.46 1 0 1 C0 0.67 0 0.34 0 0 Z " fill="#C9DFDA" transform="translate(387,255)"/>
<path d="M0 0 C0.33 0 0.66 0 1 0 C1 5.94 1 11.88 1 18 C0.67 18 0.34 18 0 18 C0 12.06 0 6.12 0 0 Z " fill="#4B7077" transform="translate(113,1013)"/>
<path d="M0 0 C5.94 0 11.88 0 18 0 C18 0.33 18 0.66 18 1 C12.06 1 6.12 1 0 1 C0 0.67 0 0.34 0 0 Z " fill="#C9DFDA" transform="translate(203,375)"/>
<path d="M0 0 C5.94 0 11.88 0 18 0 C18 0.33 18 0.66 18 1 C12.06 1 6.12 1 0 1 C0 0.67 0 0.34 0 0 Z " fill="#C9DFDA" transform="translate(862,255)"/>
<path d="M0 0 C5.94 0 11.88 0 18 0 C18 0.33 18 0.66 18 1 C12.06 1 6.12 1 0 1 C0 0.67 0 0.34 0 0 Z " fill="#C9DFDA" transform="translate(316,255)"/>
<path d="M0 0 C4.95 0 9.9 0 15 0 C15 0.33 15 0.66 15 1 C10.05 1 5.1 1 0 1 C0 0.67 0 0.34 0 0 Z " fill="#C9DFDA" transform="translate(900,254)"/>
<path d="M0 0 C0.33 0 0.66 0 1 0 C1 4.62 1 9.24 1 14 C0.67 14 0.34 14 0 14 C0 9.38 0 4.76 0 0 Z " fill="#C9DFDA" transform="translate(271,589)"/>
<path d="M0 0 C4.62 0 9.24 0 14 0 C14 0.33 14 0.66 14 1 C9.38 1 4.76 1 0 1 C0 0.67 0 0.34 0 0 Z " fill="#C9DFDA" transform="translate(288,255)"/>
<path d="M0 0 C4.62 0 9.24 0 14 0 C14 0.33 14 0.66 14 1 C9.38 1 4.76 1 0 1 C0 0.67 0 0.34 0 0 Z " fill="#C9DFDA" transform="translate(992,253)"/>
<path d="M0 0 C4.62 0 9.24 0 14 0 C14 0.33 14 0.66 14 1 C9.38 1 4.76 1 0 1 C0 0.67 0 0.34 0 0 Z " fill="#C9DFDA" transform="translate(991,176)"/>
<path d="M0 0 C4.29 0 8.58 0 13 0 C13 0.33 13 0.66 13 1 C8.71 1 4.42 1 0 1 C0 0.67 0 0.34 0 0 Z " fill="#C9DFDA" transform="translate(881,254)"/>
<path d="M0 0 C0.66 0.33 1.32 0.66 2 1 C-1.47 3.97 -1.47 3.97 -5 7 C-3.38 3.77 -2.52 2.29 0 0 Z " fill="#C9DFDA" transform="translate(924,184)"/>
<path d="M0 0 C3.96 0 7.92 0 12 0 C12 0.33 12 0.66 12 1 C8.04 1 4.08 1 0 1 C0 0.67 0 0.34 0 0 Z " fill="#C9DFDA" transform="translate(1102,253)"/>
<path d="M0 0 C3.96 0 7.92 0 12 0 C12 0.33 12 0.66 12 1 C8.04 1 4.08 1 0 1 C0 0.67 0 0.34 0 0 Z " fill="#C9DFDA" transform="translate(1081,253)"/>
<path d="M0 0 C0.66 0.33 1.32 0.66 2 1 C-0.97 3.48 -0.97 3.48 -4 6 C-2.85 3.53 -1.95 1.95 0 0 Z " fill="#C9DFDA" transform="translate(284,563)"/>
<path d="M0 0 C3.63 0 7.26 0 11 0 C11 0.33 11 0.66 11 1 C7.37 1 3.74 1 0 1 C0 0.67 0 0.34 0 0 Z " fill="#C9DFDA" transform="translate(304,255)"/>
<path d="M0 0 C3.63 0 7.26 0 11 0 C11 0.33 11 0.66 11 1 C7.37 1 3.74 1 0 1 C0 0.67 0 0.34 0 0 Z " fill="#C9DFDA" transform="translate(241,176)"/>
<path d="M0 0 C3.63 0 7.26 0 11 0 C11 0.33 11 0.66 11 1 C7.37 1 3.74 1 0 1 C0 0.67 0 0.34 0 0 Z " fill="#C9DFDA" transform="translate(227,176)"/>
<path d="M0 0 C0.33 0 0.66 0 1 0 C1 2.64 1 5.28 1 8 C0.67 8 0.34 8 0 8 C0 5.36 0 2.72 0 0 Z " fill="#4B7077" transform="translate(113,1035)"/>
<path d="M0 0 C2.64 0 5.28 0 8 0 C8 0.33 8 0.66 8 1 C5.36 1 2.72 1 0 1 C0 0.67 0 0.34 0 0 Z " fill="#C9DFDA" transform="translate(1035,253)"/>
<path d="M0 0 C2.64 0 5.28 0 8 0 C8 0.33 8 0.66 8 1 C5.36 1 2.72 1 0 1 C0 0.67 0 0.34 0 0 Z " fill="#C9DFDA" transform="translate(736,180)"/>
<path d="M0 0 C0.33 0 0.66 0 1 0 C1 2.31 1 4.62 1 7 C0.67 7 0.34 7 0 7 C0 4.69 0 2.38 0 0 Z " fill="#C9DFDA" transform="translate(482,735)"/>
<path d="M0 0 C2.31 0 4.62 0 7 0 C7 0.33 7 0.66 7 1 C4.69 1 2.38 1 0 1 C0 0.67 0 0.34 0 0 Z " fill="#C9DFDA" transform="translate(1066,253)"/>
<path d="M0 0 C0.33 0 0.66 0 1 0 C1 2.31 1 4.62 1 7 C0.67 7 0.34 7 0 7 C0 4.69 0 2.38 0 0 Z " fill="#C9DFDA" transform="translate(195,217)"/>
<path d="M0 0 C2.31 0 4.62 0 7 0 C7 0.33 7 0.66 7 1 C4.69 1 2.38 1 0 1 C0 0.67 0 0.34 0 0 Z " fill="#C9DFDA" transform="translate(1024,176)"/>
<path d="M0 0 C2.31 0 4.62 0 7 0 C7 0.33 7 0.66 7 1 C4.69 1 2.38 1 0 1 C0 0.67 0 0.34 0 0 Z " fill="#C9DFDA" transform="translate(254,176)"/>
<path d="M0 0 C1.98 0 3.96 0 6 0 C6 0.33 6 0.66 6 1 C4.02 1 2.04 1 0 1 C0 0.67 0 0.34 0 0 Z " fill="#C9DFDA" transform="translate(415,255)"/>
<path d="M0 0 C1.98 0 3.96 0 6 0 C6 0.33 6 0.66 6 1 C4.02 1 2.04 1 0 1 C0 0.67 0 0.34 0 0 Z " fill="#C9DFDA" transform="translate(408,255)"/>
<path d="M0 0 C1.98 0 3.96 0 6 0 C6 0.33 6 0.66 6 1 C4.02 1 2.04 1 0 1 C0 0.67 0 0.34 0 0 Z " fill="#C9DFDA" transform="translate(379,255)"/>
<path d="M0 0 C0.33 0 0.66 0 1 0 C1 1.98 1 3.96 1 6 C0.67 6 0.34 6 0 6 C0 4.02 0 2.04 0 0 Z " fill="#C9DFDA" transform="translate(909,227)"/>
<path d="M0 0 C0.66 0.33 1.32 0.66 2 1 C1.01 1.66 0.02 2.32 -1 3 C-0.67 2.01 -0.34 1.02 0 0 Z " fill="#C9DFDA" transform="translate(579,613)"/>
<path d="M0 0 C1.65 0 3.3 0 5 0 C5 0.33 5 0.66 5 1 C3.35 1 1.7 1 0 1 C0 0.67 0 0.34 0 0 Z " fill="#C9DFDA" transform="translate(423,255)"/>
<path d="M0 0 C1.65 0 3.3 0 5 0 C5 0.33 5 0.66 5 1 C3.35 1 1.7 1 0 1 C0 0.67 0 0.34 0 0 Z " fill="#C9DFDA" transform="translate(1055,253)"/>
<path d="M0 0 C1.65 0 3.3 0 5 0 C5 0.33 5 0.66 5 1 C3.35 1 1.7 1 0 1 C0 0.67 0 0.34 0 0 Z " fill="#C9DFDA" transform="translate(1045,253)"/>
<path d="M0 0 C1.65 0 3.3 0 5 0 C5 0.33 5 0.66 5 1 C3.35 1 1.7 1 0 1 C0 0.67 0 0.34 0 0 Z " fill="#C9DFDA" transform="translate(729,180)"/>
<path d="M0 0 C0 3 0 3 0 3 Z " fill="#C9DFDA" transform="translate(511,938)"/>
<path d="M0 0 C0 3 0 3 0 3 Z " fill="#C9DFDA" transform="translate(548,873)"/>
<path d="M0 0 C0 3 0 3 0 3 Z " fill="#C9DFDA" transform="translate(509,698)"/>
<path d="M0 0 C0 3 0 3 0 3 Z " fill="#C9DFDA" transform="translate(567,628)"/>
<path d="M0 0 C0 3 0 3 0 3 Z " fill="#C9DFDA" transform="translate(586,605)"/>
<path d="M0 0 C0 3 0 3 0 3 Z " fill="#C9DFDA" transform="translate(619,565)"/>
<path d="M0 0 C0.66 0.33 1.32 0.66 2 1 C1.01 1 0.02 1 -1 1 C-0.67 0.67 -0.34 0.34 0 0 Z " fill="#C9DFDA" transform="translate(145,389)"/>
<path d="M0 0 C4 1 4 1 4 1 Z " fill="#C9DFDA" transform="translate(856,255)"/>
<path d="M0 0 C4 1 4 1 4 1 Z " fill="#C9DFDA" transform="translate(360,255)"/>
<path d="M0 0 C4 1 4 1 4 1 Z " fill="#C9DFDA" transform="translate(345,255)"/>
<path d="M0 0 C4 1 4 1 4 1 Z " fill="#C9DFDA" transform="translate(647,180)"/>
<path d="M0 0 C4 1 4 1 4 1 Z " fill="#C9DFDA" transform="translate(1018,176)"/>
<path d="" fill="#4B7077" transform="translate(0,0)"/>
<path d="M0 0 C0.99 0.5 0.99 0.5 2 1 C1.01 1.5 1.01 1.5 0 2 C0 1.34 0 0.68 0 0 Z " fill="#C9DFDA" transform="translate(512,694)"/>
<path d="M0 0 C0.99 0.5 0.99 0.5 2 1 C1.01 1.5 1.01 1.5 0 2 C0 1.34 0 0.68 0 0 Z " fill="#C9DFDA" transform="translate(593,596)"/>
<path d="M0 0 C0.99 0.5 0.99 0.5 2 1 C1.01 1.5 1.01 1.5 0 2 C0 1.34 0 0.68 0 0 Z " fill="#C9DFDA" transform="translate(287,560)"/>
<path d="M0 0 C0.99 0.5 0.99 0.5 2 1 C1.01 1.5 1.01 1.5 0 2 C0 1.34 0 0.68 0 0 Z " fill="#C9DFDA" transform="translate(136,396)"/>
<path d="M0 0 C3 1 3 1 3 1 Z " fill="#C9DFDA" transform="translate(827,255)"/>
<path d="M0 0 C3 1 3 1 3 1 Z " fill="#C9DFDA" transform="translate(340,255)"/>
<path d="M0 0 C3 1 3 1 3 1 Z " fill="#C9DFDA" transform="translate(120,255)"/>
<path d="M0 0 C3 1 3 1 3 1 Z " fill="#C9DFDA" transform="translate(1019,253)"/>
<path d="M0 0 C0.99 0.5 0.99 0.5 2 1 C1.01 1.5 1.01 1.5 0 2 C0 1.34 0 0.68 0 0 Z " fill="#C9DFDA" transform="translate(473,209)"/>
<path d="M0 0 C0.99 0.5 0.99 0.5 2 1 C1.01 1.5 1.01 1.5 0 2 C0 1.34 0 0.68 0 0 Z " fill="#C9DFDA" transform="translate(477,204)"/>
<path d="M0 0 C3 1 3 1 3 1 Z " fill="#C9DFDA" transform="translate(544,180)"/>
<path d="M0 0 C3 1 3 1 3 1 Z " fill="#C9DFDA" transform="translate(1034,176)"/>
<path d="M0 0 C2 1 2 1 2 1 Z " fill="#4B7077" transform="translate(1063,1038)"/>
<path d="" fill="#C9DFDA" transform="translate(0,0)"/>
<path d="" fill="#C9DFDA" transform="translate(0,0)"/>
<path d="" fill="#C9DFDA" transform="translate(0,0)"/>
<path d="" fill="#C9DFDA" transform="translate(0,0)"/>
<path d="" fill="#C9DFDA" transform="translate(0,0)"/>
<path d="" fill="#C9DFDA" transform="translate(0,0)"/>
<path d="" fill="#4B7077" transform="translate(0,0)"/>
<path d="" fill="#C9DFDA" transform="translate(0,0)"/>
<path d="" fill="#C9DFDA" transform="translate(0,0)"/>
<path d="" fill="#C9DFDA" transform="translate(0,0)"/>
<path d="M0 0 C2 1 2 1 2 1 Z " fill="#C9DFDA" transform="translate(111,261)"/>
<path d="M0 0 C2 1 2 1 2 1 Z " fill="#C9DFDA" transform="translate(375,255)"/>
<path d="M0 0 C2 1 2 1 2 1 Z " fill="#C9DFDA" transform="translate(357,255)"/>
<path d="M0 0 C2 1 2 1 2 1 Z " fill="#C9DFDA" transform="translate(354,255)"/>
<path d="M0 0 C2 1 2 1 2 1 Z " fill="#C9DFDA" transform="translate(337,255)"/>
<path d="M0 0 C2 1 2 1 2 1 Z " fill="#C9DFDA" transform="translate(140,255)"/>
<path d="M0 0 C2 1 2 1 2 1 Z " fill="#C9DFDA" transform="translate(126,255)"/>
<path d="M0 0 C2 1 2 1 2 1 Z " fill="#C9DFDA" transform="translate(1146,253)"/>
<path d="M0 0 C2 1 2 1 2 1 Z " fill="#C9DFDA" transform="translate(1098,253)"/>
<path d="M0 0 C2 1 2 1 2 1 Z " fill="#C9DFDA" transform="translate(1077,253)"/>
<path d="M0 0 C2 1 2 1 2 1 Z " fill="#C9DFDA" transform="translate(1062,253)"/>
<path d="M0 0 C2 1 2 1 2 1 Z " fill="#C9DFDA" transform="translate(1015,253)"/>
<path d="M0 0 C2 1 2 1 2 1 Z " fill="#C9DFDA" transform="translate(973,253)"/>
<path d="" fill="#C9DFDA" transform="translate(0,0)"/>
<path d="" fill="#C9DFDA" transform="translate(0,0)"/>
<path d="" fill="#C9DFDA" transform="translate(0,0)"/>
<path d="" fill="#C9DFDA" transform="translate(0,0)"/>
<path d="M0 0 C2 1 2 1 2 1 Z " fill="#C9DFDA" transform="translate(747,180)"/>
<path d="M0 0 C2 1 2 1 2 1 Z " fill="#C9DFDA" transform="translate(703,180)"/>
<path d="M0 0 C2 1 2 1 2 1 Z " fill="#C9DFDA" transform="translate(536,180)"/>
<path d="M0 0 C2 1 2 1 2 1 Z " fill="#C9DFDA" transform="translate(1011,176)"/>
<path d="M0 0 C2 1 2 1 2 1 Z " fill="#C9DFDA" transform="translate(1008,176)"/>
<path d="M0 0 C2 1 2 1 2 1 Z " fill="#C9DFDA" transform="translate(948,176)"/>
<path d="M0 0 C2 1 2 1 2 1 Z " fill="#C9DFDA" transform="translate(942,176)"/>
<path d="M0 0 C2 1 2 1 2 1 Z " fill="#C9DFDA" transform="translate(327,176)"/>
<path d="M0 0 C2 1 2 1 2 1 Z " fill="#C9DFDA" transform="translate(322,176)"/>
<path d="M0 0 C2 1 2 1 2 1 Z " fill="#C9DFDA" transform="translate(319,176)"/>
<path d="" fill="#4B7077" transform="translate(0,0)"/>
<path d="" fill="#4B7077" transform="translate(0,0)"/>
<path d="" fill="#4B7077" transform="translate(0,0)"/>
<path d="" fill="#4B7077" transform="translate(0,0)"/>
<path d="" fill="#4B7077" transform="translate(0,0)"/>
<path d="" fill="#4B7077" transform="translate(0,0)"/>
<path d="" fill="#4B7077" transform="translate(0,0)"/>
<path d="" fill="#C9DFDA" transform="translate(0,0)"/>
<path d="" fill="#C9DFDA" transform="translate(0,0)"/>
<path d="" fill="#4B7077" transform="translate(0,0)"/>
<path d="" fill="#4B7077" transform="translate(0,0)"/>
<path d="" fill="#4B7077" transform="translate(0,0)"/>
<path d="" fill="#C9DFDA" transform="translate(0,0)"/>
<path d="" fill="#C9DFDA" transform="translate(0,0)"/>
<path d="" fill="#4B7077" transform="translate(0,0)"/>
<path d="" fill="#4B7077" transform="translate(0,0)"/>
<path d="" fill="#C9DFDA" transform="translate(0,0)"/>
<path d="" fill="#C9DFDA" transform="translate(0,0)"/>
<path d="" fill="#C9DFDA" transform="translate(0,0)"/>
<path d="" fill="#C9DFDA" transform="translate(0,0)"/>
<path d="" fill="#C9DFDA" transform="translate(0,0)"/>
<path d="" fill="#C9DFDA" transform="translate(0,0)"/>
<path d="" fill="#C9DFDA" transform="translate(0,0)"/>
<path d="" fill="#4B7077" transform="translate(0,0)"/>
<path d="" fill="#C9DFDA" transform="translate(0,0)"/>
<path d="" fill="#C9DFDA" transform="translate(0,0)"/>
<path d="" fill="#C9DFDA" transform="translate(0,0)"/>
<path d="" fill="#C9DFDA" transform="translate(0,0)"/>
<path d="" fill="#C9DFDA" transform="translate(0,0)"/>
<path d="" fill="#C9DFDA" transform="translate(0,0)"/>
<path d="" fill="#C9DFDA" transform="translate(0,0)"/>
<path d="" fill="#C9DFDA" transform="translate(0,0)"/>
<path d="" fill="#C9DFDA" transform="translate(0,0)"/>
<path d="" fill="#C9DFDA" transform="translate(0,0)"/>
<path d="" fill="#C9DFDA" transform="translate(0,0)"/>
<path d="" fill="#C9DFDA" transform="translate(0,0)"/>
<path d="" fill="#C9DFDA" transform="translate(0,0)"/>
<path d="" fill="#C9DFDA" transform="translate(0,0)"/>
<path d="" fill="#4B7077" transform="translate(0,0)"/>
<path d="" fill="#4B7077" transform="translate(0,0)"/>
<path d="" fill="#4B7077" transform="translate(0,0)"/>
<path d="" fill="#4B7077" transform="translate(0,0)"/>
<path d="" fill="#4B7077" transform="translate(0,0)"/>
<path d="" fill="#C9DFDA" transform="translate(0,0)"/>
<path d="" fill="#C9DFDA" transform="translate(0,0)"/>
<path d="" fill="#C9DFDA" transform="translate(0,0)"/>
<path d="" fill="#C9DFDA" transform="translate(0,0)"/>
<path d="" fill="#C9DFDA" transform="translate(0,0)"/>
<path d="" fill="#C9DFDA" transform="translate(0,0)"/>
<path d="" fill="#C9DFDA" transform="translate(0,0)"/>
<path d="" fill="#C9DFDA" transform="translate(0,0)"/>
<path d="" fill="#C9DFDA" transform="translate(0,0)"/>
<path d="" fill="#C9DFDA" transform="translate(0,0)"/>
<path d="" fill="#C9DFDA" transform="translate(0,0)"/>
<path d="" fill="#C9DFDA" transform="translate(0,0)"/>
<path d="" fill="#C9DFDA" transform="translate(0,0)"/>
<path d="" fill="#C9DFDA" transform="translate(0,0)"/>
<path d="" fill="#C9DFDA" transform="translate(0,0)"/>
<path d="" fill="#C9DFDA" transform="translate(0,0)"/>
<path d="" fill="#4B7077" transform="translate(0,0)"/>
<path d="" fill="#C9DFDA" transform="translate(0,0)"/>
<path d="" fill="#C9DFDA" transform="translate(0,0)"/>
<path d="" fill="#C9DFDA" transform="translate(0,0)"/>
<path d="" fill="#C9DFDA" transform="translate(0,0)"/>
<path d="" fill="#C9DFDA" transform="translate(0,0)"/>
<path d="" fill="#C9DFDA" transform="translate(0,0)"/>
<path d="" fill="#C9DFDA" transform="translate(0,0)"/>
<path d="" fill="#C9DFDA" transform="translate(0,0)"/>
<path d="" fill="#C9DFDA" transform="translate(0,0)"/>
<path d="" fill="#C9DFDA" transform="translate(0,0)"/>
<path d="" fill="#4B7077" transform="translate(0,0)"/>
<path d="" fill="#C9DFDA" transform="translate(0,0)"/>
<path d="" fill="#C9DFDA" transform="translate(0,0)"/>
<path d="" fill="#C9DFDA" transform="translate(0,0)"/>
<path d="" fill="#C9DFDA" transform="translate(0,0)"/>
<path d="" fill="#C9DFDA" transform="translate(0,0)"/>
<path d="" fill="#C9DFDA" transform="translate(0,0)"/>
<path d="" fill="#C9DFDA" transform="translate(0,0)"/>
<path d="" fill="#C9DFDA" transform="translate(0,0)"/>
<path d="" fill="#C9DFDA" transform="translate(0,0)"/>
<path d="" fill="#C9DFDA" transform="translate(0,0)"/>
<path d="" fill="#C9DFDA" transform="translate(0,0)"/>
<path d="" fill="#C9DFDA" transform="translate(0,0)"/>
<path d="" fill="#C9DFDA" transform="translate(0,0)"/>
<path d="" fill="#C9DFDA" transform="translate(0,0)"/>
<path d="" fill="#C9DFDA" transform="translate(0,0)"/>
<path d="" fill="#C9DFDA" transform="translate(0,0)"/>
<path d="" fill="#C9DFDA" transform="translate(0,0)"/>
<path d="" fill="#C9DFDA" transform="translate(0,0)"/>
<path d="" fill="#C9DFDA" transform="translate(0,0)"/>
<path d="" fill="#C9DFDA" transform="translate(0,0)"/>
<path d="" fill="#C9DFDA" transform="translate(0,0)"/>
<path d="" fill="#C9DFDA" transform="translate(0,0)"/>
<path d="" fill="#C9DFDA" transform="translate(0,0)"/>
<path d="" fill="#C9DFDA" transform="translate(0,0)"/>
<path d="" fill="#C9DFDA" transform="translate(0,0)"/>
<path d="" fill="#C9DFDA" transform="translate(0,0)"/>
<path d="" fill="#C9DFDA" transform="translate(0,0)"/>
<path d="" fill="#C9DFDA" transform="translate(0,0)"/>
<path d="" fill="#C9DFDA" transform="translate(0,0)"/>
<path d="" fill="#C9DFDA" transform="translate(0,0)"/>
<path d="" fill="#C9DFDA" transform="translate(0,0)"/>
<path d="" fill="#C9DFDA" transform="translate(0,0)"/>
<path d="" fill="#C9DFDA" transform="translate(0,0)"/>
<path d="" fill="#C9DFDA" transform="translate(0,0)"/>
<path d="" fill="#C9DFDA" transform="translate(0,0)"/>
<path d="" fill="#C9DFDA" transform="translate(0,0)"/>
<path d="" fill="#C9DFDA" transform="translate(0,0)"/>
<path d="" fill="#C9DFDA" transform="translate(0,0)"/>
<path d="" fill="#C9DFDA" transform="translate(0,0)"/>
<path d="" fill="#C9DFDA" transform="translate(0,0)"/>
<path d="" fill="#C9DFDA" transform="translate(0,0)"/>
<path d="" fill="#C9DFDA" transform="translate(0,0)"/>
<path d="" fill="#C9DFDA" transform="translate(0,0)"/>
<path d="" fill="#4B7077" transform="translate(0,0)"/>
<path d="" fill="#C9DFDA" transform="translate(0,0)"/>
<path d="" fill="#4B7077" transform="translate(0,0)"/>
<path d="" fill="#C9DFDA" transform="translate(0,0)"/>
<path d="" fill="#C9DFDA" transform="translate(0,0)"/>
<path d="" fill="#C9DFDA" transform="translate(0,0)"/>
<path d="" fill="#C9DFDA" transform="translate(0,0)"/>
<path d="" fill="#C9DFDA" transform="translate(0,0)"/>
<path d="" fill="#C9DFDA" transform="translate(0,0)"/>
<path d="" fill="#C9DFDA" transform="translate(0,0)"/>
<path d="" fill="#C9DFDA" transform="translate(0,0)"/>
<path d="" fill="#C9DFDA" transform="translate(0,0)"/>
<path d="" fill="#C9DFDA" transform="translate(0,0)"/>
<path d="" fill="#C9DFDA" transform="translate(0,0)"/>
<path d="" fill="#C9DFDA" transform="translate(0,0)"/>
<path d="" fill="#C9DFDA" transform="translate(0,0)"/>
<path d="" fill="#C9DFDA" transform="translate(0,0)"/>
<path d="" fill="#C9DFDA" transform="translate(0,0)"/>
<path d="" fill="#C9DFDA" transform="translate(0,0)"/>
<path d="" fill="#C9DFDA" transform="translate(0,0)"/>
<path d="" fill="#C9DFDA" transform="translate(0,0)"/>
<path d="" fill="#C9DFDA" transform="translate(0,0)"/>
<path d="" fill="#C9DFDA" transform="translate(0,0)"/>
<path d="" fill="#C9DFDA" transform="translate(0,0)"/>
<path d="" fill="#C9DFDA" transform="translate(0,0)"/>
<path d="" fill="#C9DFDA" transform="translate(0,0)"/>
<path d="" fill="#C9DFDA" transform="translate(0,0)"/>
<path d="" fill="#C9DFDA" transform="translate(0,0)"/>
<path d="" fill="#C9DFDA" transform="translate(0,0)"/>
<path d="" fill="#C9DFDA" transform="translate(0,0)"/>
<path d="" fill="#C9DFDA" transform="translate(0,0)"/>
<path d="" fill="#C9DFDA" transform="translate(0,0)"/>
<path d="" fill="#C9DFDA" transform="translate(0,0)"/>
<path d="" fill="#C9DFDA" transform="translate(0,0)"/>
<path d="" fill="#C9DFDA" transform="translate(0,0)"/>
<path d="" fill="#C9DFDA" transform="translate(0,0)"/>
<path d="" fill="#C9DFDA" transform="translate(0,0)"/>
<path d="" fill="#C9DFDA" transform="translate(0,0)"/>
<path d="" fill="#C9DFDA" transform="translate(0,0)"/>
<path d="" fill="#C9DFDA" transform="translate(0,0)"/>
<path d="" fill="#C9DFDA" transform="translate(0,0)"/>
<path d="" fill="#C9DFDA" transform="translate(0,0)"/>
<path d="" fill="#C9DFDA" transform="translate(0,0)"/>
<path d="" fill="#C9DFDA" transform="translate(0,0)"/>
<path d="" fill="#C9DFDA" transform="translate(0,0)"/>
<path d="" fill="#C9DFDA" transform="translate(0,0)"/>
<path d="" fill="#C9DFDA" transform="translate(0,0)"/>
<path d="" fill="#C9DFDA" transform="translate(0,0)"/>
<path d="" fill="#C9DFDA" transform="translate(0,0)"/>
<path d="" fill="#C9DFDA" transform="translate(0,0)"/>
<path d="" fill="#C9DFDA" transform="translate(0,0)"/>
<path d="" fill="#C9DFDA" transform="translate(0,0)"/>
<path d="" fill="#C9DFDA" transform="translate(0,0)"/>
<path d="" fill="#C9DFDA" transform="translate(0,0)"/>
<path d="" fill="#C9DFDA" transform="translate(0,0)"/>
<path d="" fill="#C9DFDA" transform="translate(0,0)"/>
<path d="" fill="#C9DFDA" transform="translate(0,0)"/>
<path d="" fill="#C9DFDA" transform="translate(0,0)"/>
<path d="" fill="#C9DFDA" transform="translate(0,0)"/>
<path d="" fill="#C9DFDA" transform="translate(0,0)"/>
<path d="" fill="#C9DFDA" transform="translate(0,0)"/>
<path d="" fill="#C9DFDA" transform="translate(0,0)"/>
<path d="" fill="#C9DFDA" transform="translate(0,0)"/>
<path d="" fill="#C9DFDA" transform="translate(0,0)"/>
<path d="" fill="#C9DFDA" transform="translate(0,0)"/>
<path d="" fill="#C9DFDA" transform="translate(0,0)"/>
<path d="" fill="#C9DFDA" transform="translate(0,0)"/>
<path d="" fill="#C9DFDA" transform="translate(0,0)"/>
</svg>
